<?xml version="1.0" standalone="no"?>
<!DOCTYPE svg PUBLIC "-//W3C//DTD SVG 20010904//EN"
 "http://www.w3.org/TR/2001/REC-SVG-20010904/DTD/svg10.dtd">
<svg version="1.0" xmlns="http://www.w3.org/2000/svg"
 width="1694.000000pt" height="906.000000pt" viewBox="0 0 1694.000000 906.000000"
 preserveAspectRatio="xMidYMid meet">

<g transform="translate(0.000000,906.000000) scale(0.100000,-0.100000)"
fill="#000000" stroke="none">
<path d="M7852 7304 c-55 -39 -45 -115 33 -239 120 -193 294 -326 512 -391 77
-23 106 -27 228 -27 112 0 156 4 219 22 220 59 411 203 530 399 57 94 81 184
58 218 -22 33 -48 34 -804 34 -675 0 -756 -2 -776 -16z"/>
<path d="M3330 6082 l0 -49 69 -5 c119 -9 170 -56 191 -176 8 -49 10 -546 8
-1892 -3 -1727 -4 -1827 -21 -1870 -35 -88 -98 -130 -194 -130 l-43 0 0 -55 0
-55 510 0 510 0 0 55 0 55 -55 0 c-101 0 -158 43 -192 143 -16 48 -18 126 -21
920 l-3 869 43 -8 c24 -4 90 -7 148 -6 307 3 609 175 792 452 97 147 150 276
190 463 26 124 31 414 9 537 -58 328 -230 581 -476 705 -184 93 -147 89 -847
93 l-618 3 0 -49z m1020 -92 c219 -42 350 -219 412 -557 28 -159 31 -549 5
-718 -53 -343 -166 -554 -341 -636 -81 -38 -190 -55 -272 -43 l-59 9 -3 978
-2 977 104 0 c57 0 127 -5 156 -10z"/>
<path d="M11150 6081 l0 -49 74 -4 c86 -4 119 -25 136 -87 6 -22 10 -291 10
-700 l0 -664 -29 39 c-47 65 -103 111 -166 141 -55 25 -70 28 -170 27 -95 0
-119 -4 -178 -27 -322 -126 -564 -541 -652 -1117 -9 -58 -19 -195 -22 -305
-20 -747 237 -1349 635 -1487 93 -32 241 -32 324 1 87 34 169 99 216 172 l42
64 0 -118 0 -117 320 0 320 0 0 54 0 54 -60 4 c-70 5 -104 30 -120 87 -6 23
-10 751 -10 2059 l0 2022 -335 0 -335 0 0 -49z m-1 -1440 c86 -45 153 -154
196 -326 l25 -98 0 -827 c0 -851 -4 -965 -40 -1106 -38 -148 -105 -251 -192
-295 -151 -77 -298 -25 -376 133 -89 181 -126 427 -138 908 -12 494 25 945
101 1230 50 187 149 346 238 385 48 21 140 19 186 -4z"/>
<path d="M6339 4771 c-31 -10 -76 -32 -101 -49 -95 -65 -209 -214 -254 -332
-9 -25 -21 -49 -26 -54 -4 -6 -8 85 -8 202 l0 212 -335 0 -335 0 0 -49 0 -48
71 -6 c80 -7 111 -22 136 -70 17 -30 18 -104 18 -1272 0 -1195 -1 -1241 -19
-1278 -24 -48 -61 -67 -131 -67 l-55 0 0 -55 0 -55 420 0 420 0 0 55 0 55 -42
0 c-56 0 -105 30 -126 78 -16 34 -17 111 -17 902 0 922 3 1002 50 1210 38 171
91 267 169 304 63 30 85 23 156 -53 86 -90 121 -111 188 -111 119 0 192 90
192 235 0 117 -47 195 -145 241 -61 29 -145 31 -226 5z"/>
<path d="M7301 4775 c-294 -83 -531 -424 -636 -920 -44 -208 -50 -278 -50
-570 0 -308 9 -395 67 -620 94 -369 264 -637 485 -771 159 -95 368 -106 516
-27 131 71 260 236 344 443 36 90 113 355 113 391 0 5 -38 9 -83 9 l-84 0 -33
-137 c-81 -341 -190 -537 -337 -609 -75 -37 -186 -39 -255 -5 -128 61 -211
249 -252 571 -18 137 -36 484 -36 693 l0 147 523 0 c470 0 525 2 546 17 l24
16 -6 171 c-20 595 -235 1072 -535 1187 -75 28 -233 36 -311 14z m230 -144
c69 -71 111 -197 143 -421 32 -233 48 -630 26 -671 -10 -18 -24 -19 -322 -19
l-311 0 7 108 c39 616 147 985 306 1045 8 3 35 6 59 6 41 1 49 -3 92 -48z"/>
<path d="M9170 4774 c-102 -27 -180 -72 -257 -150 l-73 -74 0 100 0 100 -335
0 -335 0 0 -49 0 -48 69 -6 c83 -7 105 -17 128 -60 17 -30 18 -110 21 -1262 2
-902 0 -1241 -9 -1272 -18 -66 -47 -87 -129 -91 l-70 -4 0 -54 0 -54 425 0
425 0 0 55 0 55 -46 0 c-54 0 -94 21 -120 64 -18 30 -19 74 -22 1145 -2 999
-1 1120 14 1170 20 69 45 114 98 169 54 58 107 84 182 90 146 11 250 -68 316
-244 l23 -59 3 -1117 c2 -1099 2 -1118 -17 -1157 -23 -45 -58 -61 -132 -61
l-49 0 0 -55 0 -55 420 0 420 0 0 54 0 54 -55 4 c-59 5 -86 22 -114 73 -14 27
-17 133 -21 1125 -6 1229 -1 1138 -82 1310 -74 155 -220 270 -387 306 -84 18
-220 17 -291 -2z"/>
<path d="M12745 4784 c-405 -99 -676 -596 -725 -1331 -34 -494 83 -1009 297
-1312 64 -91 176 -199 253 -244 193 -112 420 -109 578 7 187 139 304 368 396
779 l6 27 -85 0 c-84 0 -85 0 -91 -27 -80 -352 -145 -516 -250 -632 -76 -83
-142 -115 -243 -115 -94 1 -150 23 -207 85 -135 148 -204 538 -204 1155 l0
194 525 0 c524 0 525 0 546 21 21 21 22 27 16 178 -21 518 -185 957 -421 1126
-95 67 -154 87 -271 91 -55 1 -109 1 -120 -2z m181 -136 c99 -86 160 -334 184
-743 14 -248 13 -336 -6 -363 -15 -22 -16 -22 -321 -22 l-306 0 7 133 c24 442
105 802 212 943 70 91 162 111 230 52z"/>
<path d="M6728 1017 c-17 -14 -68 -83 -68 -91 0 -3 8 -6 19 -6 20 0 107 88 97
98 -12 11 -35 10 -48 -1z"/>
<path d="M5519 847 c-60 -40 -64 -59 -64 -287 0 -176 3 -210 18 -237 23 -44
55 -63 113 -69 97 -10 164 54 164 157 0 55 -1 59 -24 59 -22 0 -24 -5 -28 -62
-4 -51 -9 -65 -32 -85 -39 -33 -89 -31 -127 6 l-29 29 0 197 c0 247 7 265 99
265 52 0 82 -34 89 -100 4 -45 7 -50 28 -50 22 0 24 4 24 48 0 95 -56 152
-151 152 -31 0 -57 -7 -80 -23z"/>
<path d="M8353 850 c-48 -29 -67 -65 -67 -124 0 -71 26 -111 109 -169 92 -63
113 -84 124 -125 13 -45 -6 -102 -39 -120 -34 -18 -101 -8 -122 17 -9 12 -19
39 -23 61 -6 34 -10 40 -32 40 -24 0 -25 -2 -20 -46 6 -55 31 -93 78 -116 90
-47 200 6 215 104 15 90 -16 140 -132 219 -41 27 -81 63 -89 79 -39 75 -2 150
73 150 52 0 83 -26 91 -76 5 -33 10 -39 31 -39 23 0 25 3 22 40 -4 52 -29 91
-68 110 -45 21 -112 19 -151 -5z"/>
<path d="M9449 847 c-60 -40 -64 -59 -64 -287 0 -176 3 -210 18 -237 23 -44
55 -63 113 -69 97 -10 164 54 164 157 0 55 -1 59 -24 59 -22 0 -24 -5 -28 -62
-4 -51 -9 -65 -32 -85 -39 -33 -89 -31 -127 6 l-29 29 0 197 c0 247 7 265 99
265 52 0 82 -34 89 -100 4 -45 7 -50 28 -50 22 0 24 4 24 48 0 95 -56 152
-151 152 -31 0 -57 -7 -80 -23z"/>
<path d="M5937 853 c-3 -4 -33 -134 -66 -288 -34 -154 -64 -286 -66 -293 -3
-8 6 -12 25 -12 20 0 30 5 30 15 0 7 5 37 11 65 l11 51 91 -3 91 -3 14 -62
c13 -59 15 -63 42 -63 22 0 27 4 24 18 -3 9 -33 143 -68 297 l-63 280 -36 3
c-19 2 -37 -1 -40 -5z m78 -247 c19 -88 35 -161 35 -163 0 -2 -34 -3 -75 -3
-59 0 -75 3 -75 15 0 17 58 293 67 315 7 20 6 21 48 -164z"/>
<path d="M6220 560 l0 -300 30 0 30 0 0 140 0 140 85 0 c84 0 85 0 85 25 0 25
-1 25 -85 25 l-85 0 0 110 0 109 103 3 c97 3 102 4 105 26 3 22 3 22 -132 22
l-136 0 0 -300z"/>
<path d="M6560 560 l0 -300 135 0 135 0 0 25 0 25 -105 0 -105 0 0 120 0 120
91 0 c88 0 90 1 87 23 -3 21 -8 22 -90 25 l-88 3 0 104 0 105 105 0 105 0 0
25 0 25 -135 0 -135 0 0 -300z"/>
<path d="M7060 560 l0 -300 95 0 c112 0 156 15 185 62 18 30 20 50 20 236 0
165 -3 210 -16 237 -24 51 -65 65 -183 65 l-101 0 0 -300z m221 231 c23 -19
24 -24 27 -203 2 -110 -1 -197 -7 -219 -13 -45 -43 -59 -121 -59 l-60 0 0 250
0 250 69 0 c53 0 74 -4 92 -19z"/>
<path d="M7450 560 l0 -300 135 0 135 0 0 25 0 25 -105 0 -105 0 0 120 0 120
91 0 c88 0 90 1 87 23 -3 21 -8 22 -90 25 l-88 3 0 104 0 105 105 0 105 0 0
25 0 25 -135 0 -135 0 0 -300z"/>
<path d="M7950 560 l0 -300 135 0 135 0 0 25 0 25 -105 0 -105 0 0 120 0 120
91 0 c88 0 90 1 87 23 -3 21 -8 22 -90 25 l-88 3 0 104 0 105 105 0 105 0 0
25 0 25 -135 0 -135 0 0 -300z"/>
<path d="M8660 560 l0 -300 30 0 30 0 0 134 0 134 86 3 c81 4 87 6 114 35 32
36 46 108 35 176 -16 97 -51 118 -192 118 l-103 0 0 -300z m219 224 c37 -47
25 -183 -18 -199 -9 -3 -44 -9 -78 -12 l-63 -6 0 122 0 121 69 0 c63 0 71 -2
90 -26z"/>
<path d="M9040 560 l0 -300 135 0 135 0 0 25 0 25 -105 0 -105 0 0 120 0 120
91 0 c88 0 90 1 87 23 -3 21 -8 22 -90 25 l-88 3 0 104 0 105 105 0 105 0 0
25 0 25 -135 0 -135 0 0 -300z"/>
<path d="M9760 560 l0 -300 30 0 30 0 0 300 0 300 -30 0 -30 0 0 -300z"/>
<path d="M9920 560 l0 -300 136 0 c135 0 135 0 132 23 -3 21 -8 22 -105 25
l-103 3 0 274 0 275 -30 0 -30 0 0 -300z"/>
<path d="M10260 560 l0 -300 30 0 30 0 0 300 0 300 -30 0 -30 0 0 -300z"/>
<path d="M10420 560 l0 -300 95 0 c112 0 156 15 185 62 18 30 20 50 20 236 0
165 -3 210 -16 237 -24 51 -65 65 -183 65 l-101 0 0 -300z m221 231 c23 -19
24 -24 27 -203 2 -110 -1 -197 -7 -219 -13 -45 -43 -59 -121 -59 l-60 0 0 250
0 250 69 0 c53 0 74 -4 92 -19z"/>
<path d="M10917 853 c-3 -4 -33 -134 -66 -288 -34 -154 -64 -286 -66 -293 -3
-8 6 -12 25 -12 20 0 30 5 30 15 0 7 5 37 11 65 l11 51 91 -3 91 -3 14 -62
c13 -59 15 -63 42 -63 22 0 27 4 24 18 -3 9 -33 143 -68 297 l-63 280 -36 3
c-19 2 -37 -1 -40 -5z m78 -247 c19 -88 35 -161 35 -163 0 -2 -34 -3 -75 -3
-59 0 -75 3 -75 15 0 17 58 293 67 315 7 20 6 21 48 -164z"/>
<path d="M11200 560 l0 -300 95 0 c112 0 156 15 185 62 18 30 20 50 20 236 0
165 -3 210 -16 237 -24 51 -65 65 -183 65 l-101 0 0 -300z m221 231 c23 -19
24 -24 27 -203 2 -110 -1 -197 -7 -219 -13 -45 -43 -59 -121 -59 l-60 0 0 250
0 250 69 0 c53 0 74 -4 92 -19z"/>
</g>
</svg>
